# xmcd
#
# Track frame offsets:
# 150
# 16890
# 32837
# 42905
# 64515
# 74837
# 91235
# 104055
# 122615
# 135830
#
# Disc length: 1975 seconds
#
#
# Revision: 1
# Processed by: cddbd v1.5.2PL0 Copyright (c) Steve Scherf et al.
# Submitted via: FreeRIP 2.951 
#
DISCID=8407b50a
DTITLE=José José - José José y algo mas
DYEAR=1998
DGENRE=Balada
TTITLE0=Tiempo
TTITLE1=New York, New York
TTITLE2=El mundo
TTITLE3=Te quiero así
TTITLE4=Amor
TTITLE5=Por ella
TTITLE6=No me dejes solo
TTITLE7=Infiel
TTITLE8=Cruz de olvido
TTITLE9=Mi vida
EXTD=
EXTT0=
EXTT1=
EXTT2=
EXTT3=
EXTT4=
EXTT5=
EXTT6=
EXTT7=
EXTT8=
EXTT9=
PLAYORDER=
